  0
SECTION
  2
HEADER
  9
$ACADVER
  1
AC1014
  9
$HANDSEED
  5
FFFF
  9
$MEASUREMENT
 70
     1
  0
ENDSEC
  0
SECTION
  2
TABLES
  0
TABLE
  2
VPORT
  5
8
330
0
100
AcDbSymbolTable
 70
     4
  0
VPORT
  5
2E
330
8
100
AcDbSymbolTableRecord
100
AcDbViewportTableRecord
  2
*ACTIVE
 70
     0
 10
0.0
 20
0.0
 11
1.0
 21
1.0
 12
210.0
 22
148.5
 13
0.0
 23
0.0
 14
10.0
 24
10.0
 15
10.0
 25
10.0
 16
0.0
 26
0.0
 36
1.0
 17
0.0
 27
0.0
 37
0.0
 40
341.0
 41
1.24
 42
50.0
 43
0.0
 44
0.0
 50
0.0
 51
0.0
 71
     0
 72
   100
 73
     1
 74
     3
 75
     0
 76
     0
 77
     0
 78
     0
  0
ENDTAB
  0
TABLE
  2
LTYPE
  5
5
330
0
100
AcDbSymbolTable
 70
     1
  0
LTYPE
  5
14
330
5
100
AcDbSymbolTableRecord
100
AcDbLinetypeTableRecord
  2
BYBLOCK
 70
     0
  3

 72
    65
 73
     0
 40
0.0
  0
LTYPE
  5
15
330
5
100
AcDbSymbolTableRecord
100
AcDbLinetypeTableRecord
  2
BYLAYER
 70
     0
  3

 72
    65
 73
     0
 40
0.0
  0
LTYPE
  5
16
330
5
100
AcDbSymbolTableRecord
100
AcDbLinetypeTableRecord
  2
CONTINUOUS
 70
     0
  3
Solid line
 72
    65
 73
     0
 40
0.0
  0
ENDTAB
  0
TABLE
  2
LAYER
  5
2
100
AcDbSymbolTable
 70
2
  0
LAYER
  5
50
100
AcDbSymbolTableRecord
100
AcDbLayerTableRecord
  2
0
 70
0
  6
CONTINUOUS
  0
LAYER
  5
51
100
AcDbSymbolTableRecord
100
AcDbLayerTableRecord
  2
Layer_1
 70
0
  6
CONTINUOUS
  0
ENDTAB
  0
TABLE
  2
STYLE
  5
3
330
0
100
AcDbSymbolTable
 70
     1
  0
STYLE
  5
11
330
3
100
AcDbSymbolTableRecord
100
AcDbTextStyleTableRecord
  2
STANDARD
 70
     0
 40
0.0
 41
1.0
 50
0.0
 71
     0
 42
2.5
  3
txt
  4

  0
ENDTAB
  0
TABLE
  2
VIEW
  5
6
330
0
100
AcDbSymbolTable
 70
     0
  0
ENDTAB
  0
TABLE
  2
UCS
  5
7
330
0
100
AcDbSymbolTable
 70
     0
  0
ENDTAB
  0
TABLE
  2
APPID
  5
9
330
0
100
AcDbSymbolTable
 70
     2
  0
APPID
  5
12
330
9
100
AcDbSymbolTableRecord
100
AcDbRegAppTableRecord
  2
ACAD
 70
     0
  0
ENDTAB
  0
TABLE
  2
DIMSTYLE
  5
A
330
0
100
AcDbSymbolTable
 70
     1
  0
DIMSTYLE
105
27
330
A
100
AcDbSymbolTableRecord
100
AcDbDimStyleTableRecord
  2
ISO-25
 70
     0
  3

  4

  5

  6

  7

 40
1.0
 41
2.5
 42
0.625
 43
3.75
 44
1.25
 45
0.0
 46
0.0
 47
0.0
 48
0.0
140
2.5
141
2.5
142
0.0
143
0.03937007874016
144
1.0
145
0.0
146
1.0
147
0.625
 71
     0
 72
     0
 73
     0
 74
     0
 75
     0
 76
     0
 77
     1
 78
     8
170
     0
171
     3
172
     1
173
     0
174
     0
175
     0
176
     0
177
     0
178
     0
270
     2
271
     2
272
     2
273
     2
274
     3
340
11
275
     0
280
     0
281
     0
282
     0
283
     0
284
     8
285
     0
286
     0
287
     3
288
     0
  0
ENDTAB
  0
TABLE
  2
BLOCK_RECORD
  5
1
330
0
100
AcDbSymbolTable
 70
     1
  0
BLOCK_RECORD
  5
1F
330
1
100
AcDbSymbolTableRecord
100
AcDbBlockTableRecord
  2
*MODEL_SPACE
  0
BLOCK_RECORD
  5
1B
330
1
100
AcDbSymbolTableRecord
100
AcDbBlockTableRecord
  2
*PAPER_SPACE
  0
ENDTAB
  0
ENDSEC
  0
SECTION
  2
BLOCKS
  0
BLOCK
  5
20
330
1F
100
AcDbEntity
  8
0
100
AcDbBlockBegin
  2
*MODEL_SPACE
 70
     0
 10
0.0
 20
0.0
 30
0.0
  3
*MODEL_SPACE
  1

  0
ENDBLK
  5
21
330
1F
100
AcDbEntity
  8
0
100
AcDbBlockEnd
  0
BLOCK
  5
1C
330
1B
100
AcDbEntity
 67
     1
  8
0
100
AcDbBlockBegin
  2
*PAPER_SPACE
  1

  0
ENDBLK
  5
1D
330
1B
100
AcDbEntity
 67
     1
  8
0
100
AcDbBlockEnd
  0
ENDSEC
  0
SECTION
  2
ENTITIES
  0
LWPOLYLINE
  5
100
100
AcDbEntity
  8
Layer_1
 62
7
100
AcDbPolyline
 90
384
 70
1
 10
150.112103
 20
153.195127
 30
0.0
 10
153.385833
 20
153.566897
 30
0.0
 10
156.517673
 20
153.158637
 30
0.0
 10
163.089933
 20
150.285177
 30
0.0
 10
163.089933
 20
146.048157
 30
0.0
 10
156.517673
 20
143.174697
 30
0.0
 10
153.385833
 20
142.766437
 30
0.0
 10
150.112103
 20
143.138207
 30
0.0
 10
148.665893
 20
135.867607
 30
0.0
 10
151.832693
 20
134.958277
 30
0.0
 10
154.569903
 20
133.382587
 30
0.0
 10
159.542253
 20
128.212757
 30
0.0
 10
157.920813
 20
124.298267
 30
0.0
 10
150.749213
 20
124.158627
 30
0.0
 10
147.699533
 20
124.979947
 30
0.0
 10
144.817283
 20
126.576227
 30
0.0
 10
140.698813
 20
120.412507
 30
0.0
 10
143.276573
 20
118.360517
 30
0.0
 10
145.202433
 20
115.857287
 30
0.0
 10
147.817873
 20
109.178147
 30
0.0
 10
144.821853
 20
106.182127
 30
0.0
 10
138.142713
 20
108.797567
 30
0.0
 10
135.639483
 20
110.723427
 30
0.0
 10
133.587493
 20
113.301187
 30
0.0
 10
127.423773
 20
109.182717
 30
0.0
 10
129.020053
 20
106.300467
 30
0.0
 10
129.841373
 20
103.250787
 30
0.0
 10
129.701733
 20
96.079187
 30
0.0
 10
125.787243
 20
94.457747
 30
0.0
 10
120.617413
 20
99.430097
 30
0.0
 10
119.041723
 20
102.167307
 30
0.0
 10
118.132393
 20
105.334107
 30
0.0
 10
110.861793
 20
103.887897
 30
0.0
 10
111.233563
 20
100.614167
 30
0.0
 10
110.825303
 20
97.482327
 30
0.0
 10
107.951843
 20
90.910067
 30
0.0
 10
103.714823
 20
90.910067
 30
0.0
 10
100.841363
 20
97.482327
 30
0.0
 10
100.433103
 20
100.614167
 30
0.0
 10
100.804873
 20
103.887897
 30
0.0
 10
93.534273
 20
105.334107
 30
0.0
 10
92.624943
 20
102.167307
 30
0.0
 10
91.049253
 20
99.430097
 30
0.0
 10
85.879423
 20
94.457747
 30
0.0
 10
81.964933
 20
96.079187
 30
0.0
 10
81.825293
 20
103.250787
 30
0.0
 10
82.646613
 20
106.300467
 30
0.0
 10
84.242893
 20
109.182717
 30
0.0
 10
78.079173
 20
113.301187
 30
0.0
 10
76.027183
 20
110.723427
 30
0.0
 10
73.523953
 20
108.797567
 30
0.0
 10
66.844813
 20
106.182127
 30
0.0
 10
63.848793
 20
109.178147
 30
0.0
 10
66.464233
 20
115.857287
 30
0.0
 10
68.390093
 20
118.360517
 30
0.0
 10
70.967853
 20
120.412507
 30
0.0
 10
66.849383
 20
126.576227
 30
0.0
 10
63.967133
 20
124.979947
 30
0.0
 10
60.917453
 20
124.158627
 30
0.0
 10
53.745853
 20
124.298267
 30
0.0
 10
52.124413
 20
128.212757
 30
0.0
 10
57.096763
 20
133.382587
 30
0.0
 10
59.833973
 20
134.958277
 30
0.0
 10
63.000773
 20
135.867607
 30
0.0
 10
61.554563
 20
143.138207
 30
0.0
 10
58.280833
 20
142.766437
 30
0.0
 10
55.148993
 20
143.174697
 30
0.0
 10
48.576733
 20
146.048157
 30
0.0
 10
48.576733
 20
150.285177
 30
0.0
 10
55.148993
 20
153.158637
 30
0.0
 10
58.280833
 20
153.566897
 30
0.0
 10
61.554563
 20
153.195127
 30
0.0
 10
63.000773
 20
160.465727
 30
0.0
 10
59.833973
 20
161.375057
 30
0.0
 10
57.096763
 20
162.950747
 30
0.0
 10
52.124413
 20
168.120577
 30
0.0
 10
53.745853
 20
172.035067
 30
0.0
 10
60.917453
 20
172.174707
 30
0.0
 10
63.967133
 20
171.353387
 30
0.0
 10
66.849383
 20
169.757107
 30
0.0
 10
70.967853
 20
175.920827
 30
0.0
 10
68.390093
 20
177.972817
 30
0.0
 10
66.464233
 20
180.476047
 30
0.0
 10
63.848793
 20
187.155187
 30
0.0
 10
66.844813
 20
190.151207
 30
0.0
 10
73.523953
 20
187.535767
 30
0.0
 10
76.027183
 20
185.609907
 30
0.0
 10
78.079173
 20
183.032147
 30
0.0
 10
84.242893
 20
187.150617
 30
0.0
 10
82.646613
 20
190.032867
 30
0.0
 10
81.825293
 20
193.082547
 30
0.0
 10
81.964933
 20
200.254147
 30
0.0
 10
85.879423
 20
201.875587
 30
0.0
 10
91.049253
 20
196.903237
 30
0.0
 10
92.624943
 20
194.166027
 30
0.0
 10
93.534273
 20
190.999227
 30
0.0
 10
100.804873
 20
192.445437
 30
0.0
 10
100.433103
 20
195.719167
 30
0.0
 10
100.841363
 20
198.851007
 30
0.0
 10
103.714823
 20
205.423267
 30
0.0
 10
107.951843
 20
205.423267
 30
0.0
 10
110.825303
 20
198.851007
 30
0.0
 10
111.233563
 20
195.719167
 30
0.0
 10
110.861793
 20
192.445437
 30
0.0
 10
118.132393
 20
190.999227
 30
0.0
 10
119.041723
 20
194.166027
 30
0.0
 10
120.617413
 20
196.903237
 30
0.0
 10
125.787243
 20
201.875587
 30
0.0
 10
129.701733
 20
200.254147
 30
0.0
 10
129.841373
 20
193.082547
 30
0.0
 10
129.020053
 20
190.032867
 30
0.0
 10
127.423773
 20
187.150617
 30
0.0
 10
133.587493
 20
183.032147
 30
0.0
 10
135.639483
 20
185.609907
 30
0.0
 10
138.142713
 20
187.535767
 30
0.0
 10
144.821853
 20
190.151207
 30
0.0
 10
147.817873
 20
187.155187
 30
0.0
 10
145.202433
 20
180.476047
 30
0.0
 10
143.276573
 20
177.972817
 30
0.0
 10
140.698813
 20
175.920827
 30
0.0
 10
144.817283
 20
169.757107
 30
0.0
 10
147.699533
 20
171.353387
 30
0.0
 10
150.749213
 20
172.174707
 30
0.0
 10
157.920813
 20
172.035067
 30
0.0
 10
159.542253
 20
168.120577
 30
0.0
 10
154.569903
 20
162.950747
 30
0.0
 10
151.832693
 20
161.375057
 30
0.0
 10
148.665893
 20
160.465727
 30
0.0
 10
150.112103
 20
153.195127
 30
0.0
 10
153.385833
 20
153.566897
 30
0.0
 10
156.517673
 20
153.158637
 30
0.0
 10
163.089933
 20
150.285177
 30
0.0
 10
163.089933
 20
146.048157
 30
0.0
 10
156.517673
 20
143.174697
 30
0.0
 10
153.385833
 20
142.766437
 30
0.0
 10
150.112103
 20
143.138207
 30
0.0
 10
148.665893
 20
135.867607
 30
0.0
 10
151.832693
 20
134.958277
 30
0.0
 10
154.569903
 20
133.382587
 30
0.0
 10
159.542253
 20
128.212757
 30
0.0
 10
157.920813
 20
124.298267
 30
0.0
 10
150.749213
 20
124.158627
 30
0.0
 10
147.699533
 20
124.979947
 30
0.0
 10
144.817283
 20
126.576227
 30
0.0
 10
140.698813
 20
120.412507
 30
0.0
 10
143.276573
 20
118.360517
 30
0.0
 10
145.202433
 20
115.857287
 30
0.0
 10
147.817873
 20
109.178147
 30
0.0
 10
144.821853
 20
106.182127
 30
0.0
 10
138.142713
 20
108.797567
 30
0.0
 10
135.639483
 20
110.723427
 30
0.0
 10
133.587493
 20
113.301187
 30
0.0
 10
127.423773
 20
109.182717
 30
0.0
 10
129.020053
 20
106.300467
 30
0.0
 10
129.841373
 20
103.250787
 30
0.0
 10
129.701733
 20
96.079187
 30
0.0
 10
125.787243
 20
94.457747
 30
0.0
 10
120.617413
 20
99.430097
 30
0.0
 10
119.041723
 20
102.167307
 30
0.0
 10
118.132393
 20
105.334107
 30
0.0
 10
110.861793
 20
103.887897
 30
0.0
 10
111.233563
 20
100.614167
 30
0.0
 10
110.825303
 20
97.482327
 30
0.0
 10
107.951843
 20
90.910067
 30
0.0
 10
103.714823
 20
90.910067
 30
0.0
 10
100.841363
 20
97.482327
 30
0.0
 10
100.433103
 20
100.614167
 30
0.0
 10
100.804873
 20
103.887897
 30
0.0
 10
93.534273
 20
105.334107
 30
0.0
 10
92.624943
 20
102.167307
 30
0.0
 10
91.049253
 20
99.430097
 30
0.0
 10
85.879423
 20
94.457747
 30
0.0
 10
81.964933
 20
96.079187
 30
0.0
 10
81.825293
 20
103.250787
 30
0.0
 10
82.646613
 20
106.300467
 30
0.0
 10
84.242893
 20
109.182717
 30
0.0
 10
78.079173
 20
113.301187
 30
0.0
 10
76.027183
 20
110.723427
 30
0.0
 10
73.523953
 20
108.797567
 30
0.0
 10
66.844813
 20
106.182127
 30
0.0
 10
63.848793
 20
109.178147
 30
0.0
 10
66.464233
 20
115.857287
 30
0.0
 10
68.390093
 20
118.360517
 30
0.0
 10
70.967853
 20
120.412507
 30
0.0
 10
66.849383
 20
126.576227
 30
0.0
 10
63.967133
 20
124.979947
 30
0.0
 10
60.917453
 20
124.158627
 30
0.0
 10
53.745853
 20
124.298267
 30
0.0
 10
52.124413
 20
128.212757
 30
0.0
 10
57.096763
 20
133.382587
 30
0.0
 10
59.833973
 20
134.958277
 30
0.0
 10
63.000773
 20
135.867607
 30
0.0
 10
61.554563
 20
143.138207
 30
0.0
 10
58.280833
 20
142.766437
 30
0.0
 10
55.148993
 20
143.174697
 30
0.0
 10
48.576733
 20
146.048157
 30
0.0
 10
48.576733
 20
150.285177
 30
0.0
 10
55.148993
 20
153.158637
 30
0.0
 10
58.280833
 20
153.566897
 30
0.0
 10
61.554563
 20
153.195127
 30
0.0
 10
63.000773
 20
160.465727
 30
0.0
 10
59.833973
 20
161.375057
 30
0.0
 10
57.096763
 20
162.950747
 30
0.0
 10
52.124413
 20
168.120577
 30
0.0
 10
53.745853
 20
172.035067
 30
0.0
 10
60.917453
 20
172.174707
 30
0.0
 10
63.967133
 20
171.353387
 30
0.0
 10
66.849383
 20
169.757107
 30
0.0
 10
70.967853
 20
175.920827
 30
0.0
 10
68.390093
 20
177.972817
 30
0.0
 10
66.464233
 20
180.476047
 30
0.0
 10
63.848793
 20
187.155187
 30
0.0
 10
66.844813
 20
190.151207
 30
0.0
 10
73.523953
 20
187.535767
 30
0.0
 10
76.027183
 20
185.609907
 30
0.0
 10
78.079173
 20
183.032147
 30
0.0
 10
84.242893
 20
187.150617
 30
0.0
 10
82.646613
 20
190.032867
 30
0.0
 10
81.825293
 20
193.082547
 30
0.0
 10
81.964933
 20
200.254147
 30
0.0
 10
85.879423
 20
201.875587
 30
0.0
 10
91.049253
 20
196.903237
 30
0.0
 10
92.624943
 20
194.166027
 30
0.0
 10
93.534273
 20
190.999227
 30
0.0
 10
100.804873
 20
192.445437
 30
0.0
 10
100.433103
 20
195.719167
 30
0.0
 10
100.841363
 20
198.851007
 30
0.0
 10
103.714823
 20
205.423267
 30
0.0
 10
107.951843
 20
205.423267
 30
0.0
 10
110.825303
 20
198.851007
 30
0.0
 10
111.233563
 20
195.719167
 30
0.0
 10
110.861793
 20
192.445437
 30
0.0
 10
118.132393
 20
190.999227
 30
0.0
 10
119.041723
 20
194.166027
 30
0.0
 10
120.617413
 20
196.903237
 30
0.0
 10
125.787243
 20
201.875587
 30
0.0
 10
129.701733
 20
200.254147
 30
0.0
 10
129.841373
 20
193.082547
 30
0.0
 10
129.020053
 20
190.032867
 30
0.0
 10
127.423773
 20
187.150617
 30
0.0
 10
133.587493
 20
183.032147
 30
0.0
 10
135.639483
 20
185.609907
 30
0.0
 10
138.142713
 20
187.535767
 30
0.0
 10
144.821853
 20
190.151207
 30
0.0
 10
147.817873
 20
187.155187
 30
0.0
 10
145.202433
 20
180.476047
 30
0.0
 10
143.276573
 20
177.972817
 30
0.0
 10
140.698813
 20
175.920827
 30
0.0
 10
144.817283
 20
169.757107
 30
0.0
 10
147.699533
 20
171.353387
 30
0.0
 10
150.749213
 20
172.174707
 30
0.0
 10
157.920813
 20
172.035067
 30
0.0
 10
159.542253
 20
168.120577
 30
0.0
 10
154.569903
 20
162.950747
 30
0.0
 10
151.832693
 20
161.375057
 30
0.0
 10
148.665893
 20
160.465727
 30
0.0
 10
150.112103
 20
153.195127
 30
0.0
 10
153.385833
 20
153.566897
 30
0.0
 10
156.517673
 20
153.158637
 30
0.0
 10
163.089933
 20
150.285177
 30
0.0
 10
163.089933
 20
146.048157
 30
0.0
 10
156.517673
 20
143.174697
 30
0.0
 10
153.385833
 20
142.766437
 30
0.0
 10
150.112103
 20
143.138207
 30
0.0
 10
148.665893
 20
135.867607
 30
0.0
 10
151.832693
 20
134.958277
 30
0.0
 10
154.569903
 20
133.382587
 30
0.0
 10
159.542253
 20
128.212757
 30
0.0
 10
157.920813
 20
124.298267
 30
0.0
 10
150.749213
 20
124.158627
 30
0.0
 10
147.699533
 20
124.979947
 30
0.0
 10
144.817283
 20
126.576227
 30
0.0
 10
140.698813
 20
120.412507
 30
0.0
 10
143.276573
 20
118.360517
 30
0.0
 10
145.202433
 20
115.857287
 30
0.0
 10
147.817873
 20
109.178147
 30
0.0
 10
144.821853
 20
106.182127
 30
0.0
 10
138.142713
 20
108.797567
 30
0.0
 10
135.639483
 20
110.723427
 30
0.0
 10
133.587493
 20
113.301187
 30
0.0
 10
127.423773
 20
109.182717
 30
0.0
 10
129.020053
 20
106.300467
 30
0.0
 10
129.841373
 20
103.250787
 30
0.0
 10
129.701733
 20
96.079187
 30
0.0
 10
125.787243
 20
94.457747
 30
0.0
 10
120.617413
 20
99.430097
 30
0.0
 10
119.041723
 20
102.167307
 30
0.0
 10
118.132393
 20
105.334107
 30
0.0
 10
110.861793
 20
103.887897
 30
0.0
 10
111.233563
 20
100.614167
 30
0.0
 10
110.825303
 20
97.482327
 30
0.0
 10
107.951843
 20
90.910067
 30
0.0
 10
103.714823
 20
90.910067
 30
0.0
 10
100.841363
 20
97.482327
 30
0.0
 10
100.433103
 20
100.614167
 30
0.0
 10
100.804873
 20
103.887897
 30
0.0
 10
93.534273
 20
105.334107
 30
0.0
 10
92.624943
 20
102.167307
 30
0.0
 10
91.049253
 20
99.430097
 30
0.0
 10
85.879423
 20
94.457747
 30
0.0
 10
81.964933
 20
96.079187
 30
0.0
 10
81.825293
 20
103.250787
 30
0.0
 10
82.646613
 20
106.300467
 30
0.0
 10
84.242893
 20
109.182717
 30
0.0
 10
78.079173
 20
113.301187
 30
0.0
 10
76.027183
 20
110.723427
 30
0.0
 10
73.523953
 20
108.797567
 30
0.0
 10
66.844813
 20
106.182127
 30
0.0
 10
63.848793
 20
109.178147
 30
0.0
 10
66.464233
 20
115.857287
 30
0.0
 10
68.390093
 20
118.360517
 30
0.0
 10
70.967853
 20
120.412507
 30
0.0
 10
66.849383
 20
126.576227
 30
0.0
 10
63.967133
 20
124.979947
 30
0.0
 10
60.917453
 20
124.158627
 30
0.0
 10
53.745853
 20
124.298267
 30
0.0
 10
52.124413
 20
128.212757
 30
0.0
 10
57.096763
 20
133.382587
 30
0.0
 10
59.833973
 20
134.958277
 30
0.0
 10
63.000773
 20
135.867607
 30
0.0
 10
61.554563
 20
143.138207
 30
0.0
 10
58.280833
 20
142.766437
 30
0.0
 10
55.148993
 20
143.174697
 30
0.0
 10
48.576733
 20
146.048157
 30
0.0
 10
48.576733
 20
150.285177
 30
0.0
 10
55.148993
 20
153.158637
 30
0.0
 10
58.280833
 20
153.566897
 30
0.0
 10
61.554563
 20
153.195127
 30
0.0
 10
63.000773
 20
160.465727
 30
0.0
 10
59.833973
 20
161.375057
 30
0.0
 10
57.096763
 20
162.950747
 30
0.0
 10
52.124413
 20
168.120577
 30
0.0
 10
53.745853
 20
172.035067
 30
0.0
 10
60.917453
 20
172.174707
 30
0.0
 10
63.967133
 20
171.353387
 30
0.0
 10
66.849383
 20
169.757107
 30
0.0
 10
70.967853
 20
175.920827
 30
0.0
 10
68.390093
 20
177.972817
 30
0.0
 10
66.464233
 20
180.476047
 30
0.0
 10
63.848793
 20
187.155187
 30
0.0
 10
66.844813
 20
190.151207
 30
0.0
 10
73.523953
 20
187.535767
 30
0.0
 10
76.027183
 20
185.609907
 30
0.0
 10
78.079173
 20
183.032147
 30
0.0
 10
84.242893
 20
187.150617
 30
0.0
 10
82.646613
 20
190.032867
 30
0.0
 10
81.825293
 20
193.082547
 30
0.0
 10
81.964933
 20
200.254147
 30
0.0
 10
85.879423
 20
201.875587
 30
0.0
 10
91.049253
 20
196.903237
 30
0.0
 10
92.624943
 20
194.166027
 30
0.0
 10
93.534273
 20
190.999227
 30
0.0
 10
100.804873
 20
192.445437
 30
0.0
 10
100.433103
 20
195.719167
 30
0.0
 10
100.841363
 20
198.851007
 30
0.0
 10
103.714823
 20
205.423267
 30
0.0
 10
107.951843
 20
205.423267
 30
0.0
 10
110.825303
 20
198.851007
 30
0.0
 10
111.233563
 20
195.719167
 30
0.0
 10
110.861793
 20
192.445437
 30
0.0
 10
118.132393
 20
190.999227
 30
0.0
 10
119.041723
 20
194.166027
 30
0.0
 10
120.617413
 20
196.903237
 30
0.0
 10
125.787243
 20
201.875587
 30
0.0
 10
129.701733
 20
200.254147
 30
0.0
 10
129.841373
 20
193.082547
 30
0.0
 10
129.020053
 20
190.032867
 30
0.0
 10
127.423773
 20
187.150617
 30
0.0
 10
133.587493
 20
183.032147
 30
0.0
 10
135.639483
 20
185.609907
 30
0.0
 10
138.142713
 20
187.535767
 30
0.0
 10
144.821853
 20
190.151207
 30
0.0
 10
147.817873
 20
187.155187
 30
0.0
 10
145.202433
 20
180.476047
 30
0.0
 10
143.276573
 20
177.972817
 30
0.0
 10
140.698813
 20
175.920827
 30
0.0
 10
144.817283
 20
169.757107
 30
0.0
 10
147.699533
 20
171.353387
 30
0.0
 10
150.749213
 20
172.174707
 30
0.0
 10
157.920813
 20
172.035067
 30
0.0
 10
159.542253
 20
168.120577
 30
0.0
 10
154.569903
 20
162.950747
 30
0.0
 10
151.832693
 20
161.375057
 30
0.0
 10
148.665893
 20
160.465727
 30
0.0
  0
ENDSEC
  0
SECTION
  2
OBJECTS
  0
DICTIONARY
  5
C
330
0
100
AcDbDictionary
  3
ACAD_GROUP
350
D
  3
ACAD_MLINESTYLE
350
17
  0
DICTIONARY
  5
D
330
C
100
AcDbDictionary
  0
DICTIONARY
  5
1A
330
C
100
AcDbDictionary
  0
DICTIONARY
  5
17
330
C
100
AcDbDictionary
  3
STANDARD
350
18
  0
DICTIONARY
  5
19
330
C
100
AcDbDictionary
  0
ENDSEC
  0
EOF
